<svg width="22" height="22" viewBox="0 0 22 22" fill="none" xmlns="http://www.w3.org/2000/svg">
<path d="M15.5279 19.451C18.6045 17.8013 20.4166 14.7146 20.5796 11.4648M15.5279 19.451C19.3943 17.3778 20.5067 13.263 20.5796 11.4648M15.5279 19.451C13.731 20.4145 11.7644 20.7475 9.88208 20.5265M15.5279 19.451C19.2823 17.749 20.46 13.4177 20.5796 11.4648M6.45773 2.53542C1.78665 5.04011 0.0304367 10.8572 2.53511 15.5283C4.07623 18.4025 6.87142 20.173 9.88208 20.5265M6.45773 2.53542C7.91778 1.75253 11.6624 0.600237 14.9604 2.25424M6.45773 2.53542C7.56923 1.93942 8.74562 1.58469 9.92683 1.45307M14.9604 2.25424C16.8133 3.09384 18.415 4.52682 19.4506 6.45806C20.3055 8.05256 20.664 9.78059 20.5796 11.4648M14.9604 2.25424C13.3981 1.54633 11.6573 1.26026 9.92683 1.45307M14.9604 2.25424C13.5743 1.44185 11.0271 1.38163 9.92683 1.45307M9.92683 1.45307L9.88208 20.5265" stroke="url(#paint0_linear_0_497)"/>
<defs>
<linearGradient id="paint0_linear_0_497" x1="1.75599" y1="9.7235" x2="21.9646" y2="10.9922" gradientUnits="userSpaceOnUse">
<stop offset="0.288448" stop-color="#555248"/>
<stop offset="0.780176" stop-color="#1B1A17" stop-opacity="0"/>
</linearGradient>
</defs>
</svg>
