<svg width="28" height="28" viewBox="0 0 28 28" fill="none" xmlns="http://www.w3.org/2000/svg">
<path d="M19.9327 25.0649C23.9579 22.9065 26.3288 18.8681 26.542 14.6163M19.9327 25.0649C24.9913 22.3524 26.4466 16.9689 26.542 14.6163M19.9327 25.0649C17.5816 26.3255 15.0087 26.7612 12.5459 26.472M19.9327 25.0649C24.8446 22.8381 26.3855 17.1713 26.542 14.6163M8.06567 2.93356C1.95427 6.21054 -0.343478 13.8213 2.93351 19.9327C4.94984 23.6931 8.60692 26.0096 12.5459 26.472M8.06567 2.93356C9.97592 1.90926 14.8752 0.401668 19.1901 2.56567M8.06567 2.93356C9.5199 2.15378 11.059 1.68966 12.6045 1.51747M19.1901 2.56567C21.6143 3.66415 23.71 5.53899 25.0648 8.06572C26.1835 10.1519 26.6525 12.4127 26.542 14.6163M19.1901 2.56567C17.1461 1.63948 14.8685 1.26521 12.6045 1.51747M19.1901 2.56567C17.3766 1.50278 14.044 1.424 12.6045 1.51747M12.6045 1.51747L12.5459 26.472" stroke="url(#paint0_linear_0_488)" stroke-width="2"/>
<defs>
<linearGradient id="paint0_linear_0_488" x1="1.91415" y1="12.338" x2="28.354" y2="13.9979" gradientUnits="userSpaceOnUse">
<stop offset="0.288448" stop-color="white"/>
<stop offset="0.780176" stop-color="white" stop-opacity="0"/>
</linearGradient>
</defs>
</svg>
